<?xml version="1.0" encoding="utf-8" standalone="no"?>
<!DOCTYPE svg PUBLIC "-//W3C//DTD SVG 1.1//EN"
  "http://www.w3.org/Graphics/SVG/1.1/DTD/svg11.dtd">
<!-- Created with matplotlib (https://matplotlib.org/) -->
<svg height="576pt" version="1.1" viewBox="0 0 720 576" width="720pt" xmlns="http://www.w3.org/2000/svg" xmlns:xlink="http://www.w3.org/1999/xlink">
 <defs>
  <style type="text/css">
*{stroke-linecap:butt;stroke-linejoin:round;}
  </style>
 </defs>
 <g id="figure_1">
  <g id="patch_1">
   <path d="M 0 576 
L 720 576 
L 720 0 
L 0 0 
z
" style="fill:#ffffff;"/>
  </g>
  <g id="axes_1">
   <g id="patch_2">
    <path d="M 104.42 505.24 
L 688.5 505.24 
L 688.5 13.32 
L 104.42 13.32 
z
" style="fill:#ffffff;"/>
   </g>
   <g id="matplotlib.axis_1">
    <g id="xtick_1">
     <g id="line2d_1">
      <path clip-path="url(#pd995906c9d)" d="M 104.42 505.24 
L 104.42 13.32 
" style="fill:none;stroke:#000000;stroke-dasharray:2,3.3;stroke-dashoffset:0;stroke-width:2;"/>
     </g>
     <g id="line2d_2">
      <defs>
       <path d="M 0 0 
L 0 3.5 
" id="mcd1f135bc3" style="stroke:#000000;stroke-width:0.8;"/>
      </defs>
      <g>
       <use style="stroke:#000000;stroke-width:0.8;" x="104.42" xlink:href="#mcd1f135bc3" y="505.24"/>
      </g>
     </g>
     <g id="text_1">
      <!-- 0.0 -->
      <defs>
       <path d="M 31.78125 66.40625 
Q 24.171875 66.40625 20.328125 58.90625 
Q 16.5 51.421875 16.5 36.375 
Q 16.5 21.390625 20.328125 13.890625 
Q 24.171875 6.390625 31.78125 6.390625 
Q 39.453125 6.390625 43.28125 13.890625 
Q 47.125 21.390625 47.125 36.375 
Q 47.125 51.421875 43.28125 58.90625 
Q 39.453125 66.40625 31.78125 66.40625 
z
M 31.78125 74.21875 
Q 44.046875 74.21875 50.515625 64.515625 
Q 56.984375 54.828125 56.984375 36.375 
Q 56.984375 17.96875 50.515625 8.265625 
Q 44.046875 -1.421875 31.78125 -1.421875 
Q 19.53125 -1.421875 13.0625 8.265625 
Q 6.59375 17.96875 6.59375 36.375 
Q 6.59375 54.828125 13.0625 64.515625 
Q 19.53125 74.21875 31.78125 74.21875 
z
" id="DejaVuSans-48"/>
       <path d="M 10.6875 12.40625 
L 21 12.40625 
L 21 0 
L 10.6875 0 
z
" id="DejaVuSans-46"/>
      </defs>
      <g transform="translate(83.745938 531.995937)scale(0.26 -0.26)">
       <use xlink:href="#DejaVuSans-48"/>
       <use x="63.623047" xlink:href="#DejaVuSans-46"/>
       <use x="95.410156" xlink:href="#DejaVuSans-48"/>
      </g>
     </g>
    </g>
    <g id="xtick_2">
     <g id="line2d_3">
      <path clip-path="url(#pd995906c9d)" d="M 221.236 505.24 
L 221.236 13.32 
" style="fill:none;stroke:#000000;stroke-dasharray:2,3.3;stroke-dashoffset:0;stroke-width:2;"/>
     </g>
     <g id="line2d_4">
      <g>
       <use style="stroke:#000000;stroke-width:0.8;" x="221.236" xlink:href="#mcd1f135bc3" y="505.24"/>
      </g>
     </g>
     <g id="text_2">
      <!-- 0.2 -->
      <defs>
       <path d="M 19.1875 8.296875 
L 53.609375 8.296875 
L 53.609375 0 
L 7.328125 0 
L 7.328125 8.296875 
Q 12.9375 14.109375 22.625 23.890625 
Q 32.328125 33.6875 34.8125 36.53125 
Q 39.546875 41.84375 41.421875 45.53125 
Q 43.3125 49.21875 43.3125 52.78125 
Q 43.3125 58.59375 39.234375 62.25 
Q 35.15625 65.921875 28.609375 65.921875 
Q 23.96875 65.921875 18.8125 64.3125 
Q 13.671875 62.703125 7.8125 59.421875 
L 7.8125 69.390625 
Q 13.765625 71.78125 18.9375 73 
Q 24.125 74.21875 28.421875 74.21875 
Q 39.75 74.21875 46.484375 68.546875 
Q 53.21875 62.890625 53.21875 53.421875 
Q 53.21875 48.921875 51.53125 44.890625 
Q 49.859375 40.875 45.40625 35.40625 
Q 44.1875 33.984375 37.640625 27.21875 
Q 31.109375 20.453125 19.1875 8.296875 
z
" id="DejaVuSans-50"/>
      </defs>
      <g transform="translate(200.561938 531.995937)scale(0.26 -0.26)">
       <use xlink:href="#DejaVuSans-48"/>
       <use x="63.623047" xlink:href="#DejaVuSans-46"/>
       <use x="95.410156" xlink:href="#DejaVuSans-50"/>
      </g>
     </g>
    </g>
    <g id="xtick_3">
     <g id="line2d_5">
      <path clip-path="url(#pd995906c9d)" d="M 338.052 505.24 
L 338.052 13.32 
" style="fill:none;stroke:#000000;stroke-dasharray:2,3.3;stroke-dashoffset:0;stroke-width:2;"/>
     </g>
     <g id="line2d_6">
      <g>
       <use style="stroke:#000000;stroke-width:0.8;" x="338.052" xlink:href="#mcd1f135bc3" y="505.24"/>
      </g>
     </g>
     <g id="text_3">
      <!-- 0.4 -->
      <defs>
       <path d="M 37.796875 64.3125 
L 12.890625 25.390625 
L 37.796875 25.390625 
z
M 35.203125 72.90625 
L 47.609375 72.90625 
L 47.609375 25.390625 
L 58.015625 25.390625 
L 58.015625 17.1875 
L 47.609375 17.1875 
L 47.609375 0 
L 37.796875 0 
L 37.796875 17.1875 
L 4.890625 17.1875 
L 4.890625 26.703125 
z
" id="DejaVuSans-52"/>
      </defs>
      <g transform="translate(317.377938 531.995937)scale(0.26 -0.26)">
       <use xlink:href="#DejaVuSans-48"/>
       <use x="63.623047" xlink:href="#DejaVuSans-46"/>
       <use x="95.410156" xlink:href="#DejaVuSans-52"/>
      </g>
     </g>
    </g>
    <g id="xtick_4">
     <g id="line2d_7">
      <path clip-path="url(#pd995906c9d)" d="M 454.868 505.24 
L 454.868 13.32 
" style="fill:none;stroke:#000000;stroke-dasharray:2,3.3;stroke-dashoffset:0;stroke-width:2;"/>
     </g>
     <g id="line2d_8">
      <g>
       <use style="stroke:#000000;stroke-width:0.8;" x="454.868" xlink:href="#mcd1f135bc3" y="505.24"/>
      </g>
     </g>
     <g id="text_4">
      <!-- 0.6 -->
      <defs>
       <path d="M 33.015625 40.375 
Q 26.375 40.375 22.484375 35.828125 
Q 18.609375 31.296875 18.609375 23.390625 
Q 18.609375 15.53125 22.484375 10.953125 
Q 26.375 6.390625 33.015625 6.390625 
Q 39.65625 6.390625 43.53125 10.953125 
Q 47.40625 15.53125 47.40625 23.390625 
Q 47.40625 31.296875 43.53125 35.828125 
Q 39.65625 40.375 33.015625 40.375 
z
M 52.59375 71.296875 
L 52.59375 62.3125 
Q 48.875 64.0625 45.09375 64.984375 
Q 41.3125 65.921875 37.59375 65.921875 
Q 27.828125 65.921875 22.671875 59.328125 
Q 17.53125 52.734375 16.796875 39.40625 
Q 19.671875 43.65625 24.015625 45.921875 
Q 28.375 48.1875 33.59375 48.1875 
Q 44.578125 48.1875 50.953125 41.515625 
Q 57.328125 34.859375 57.328125 23.390625 
Q 57.328125 12.15625 50.6875 5.359375 
Q 44.046875 -1.421875 33.015625 -1.421875 
Q 20.359375 -1.421875 13.671875 8.265625 
Q 6.984375 17.96875 6.984375 36.375 
Q 6.984375 53.65625 15.1875 63.9375 
Q 23.390625 74.21875 37.203125 74.21875 
Q 40.921875 74.21875 44.703125 73.484375 
Q 48.484375 72.75 52.59375 71.296875 
z
" id="DejaVuSans-54"/>
      </defs>
      <g transform="translate(434.193938 531.995937)scale(0.26 -0.26)">
       <use xlink:href="#DejaVuSans-48"/>
       <use x="63.623047" xlink:href="#DejaVuSans-46"/>
       <use x="95.410156" xlink:href="#DejaVuSans-54"/>
      </g>
     </g>
    </g>
    <g id="xtick_5">
     <g id="line2d_9">
      <path clip-path="url(#pd995906c9d)" d="M 571.684 505.24 
L 571.684 13.32 
" style="fill:none;stroke:#000000;stroke-dasharray:2,3.3;stroke-dashoffset:0;stroke-width:2;"/>
     </g>
     <g id="line2d_10">
      <g>
       <use style="stroke:#000000;stroke-width:0.8;" x="571.684" xlink:href="#mcd1f135bc3" y="505.24"/>
      </g>
     </g>
     <g id="text_5">
      <!-- 0.8 -->
      <defs>
       <path d="M 31.78125 34.625 
Q 24.75 34.625 20.71875 30.859375 
Q 16.703125 27.09375 16.703125 20.515625 
Q 16.703125 13.921875 20.71875 10.15625 
Q 24.75 6.390625 31.78125 6.390625 
Q 38.8125 6.390625 42.859375 10.171875 
Q 46.921875 13.96875 46.921875 20.515625 
Q 46.921875 27.09375 42.890625 30.859375 
Q 38.875 34.625 31.78125 34.625 
z
M 21.921875 38.8125 
Q 15.578125 40.375 12.03125 44.71875 
Q 8.5 49.078125 8.5 55.328125 
Q 8.5 64.0625 14.71875 69.140625 
Q 20.953125 74.21875 31.78125 74.21875 
Q 42.671875 74.21875 48.875 69.140625 
Q 55.078125 64.0625 55.078125 55.328125 
Q 55.078125 49.078125 51.53125 44.71875 
Q 48 40.375 41.703125 38.8125 
Q 48.828125 37.15625 52.796875 32.3125 
Q 56.78125 27.484375 56.78125 20.515625 
Q 56.78125 9.90625 50.3125 4.234375 
Q 43.84375 -1.421875 31.78125 -1.421875 
Q 19.734375 -1.421875 13.25 4.234375 
Q 6.78125 9.90625 6.78125 20.515625 
Q 6.78125 27.484375 10.78125 32.3125 
Q 14.796875 37.15625 21.921875 38.8125 
z
M 18.3125 54.390625 
Q 18.3125 48.734375 21.84375 45.5625 
Q 25.390625 42.390625 31.78125 42.390625 
Q 38.140625 42.390625 41.71875 45.5625 
Q 45.3125 48.734375 45.3125 54.390625 
Q 45.3125 60.0625 41.71875 63.234375 
Q 38.140625 66.40625 31.78125 66.40625 
Q 25.390625 66.40625 21.84375 63.234375 
Q 18.3125 60.0625 18.3125 54.390625 
z
" id="DejaVuSans-56"/>
      </defs>
      <g transform="translate(551.009937 531.995937)scale(0.26 -0.26)">
       <use xlink:href="#DejaVuSans-48"/>
       <use x="63.623047" xlink:href="#DejaVuSans-46"/>
       <use x="95.410156" xlink:href="#DejaVuSans-56"/>
      </g>
     </g>
    </g>
    <g id="xtick_6">
     <g id="line2d_11">
      <path clip-path="url(#pd995906c9d)" d="M 688.5 505.24 
L 688.5 13.32 
" style="fill:none;stroke:#000000;stroke-dasharray:2,3.3;stroke-dashoffset:0;stroke-width:2;"/>
     </g>
     <g id="line2d_12">
      <g>
       <use style="stroke:#000000;stroke-width:0.8;" x="688.5" xlink:href="#mcd1f135bc3" y="505.24"/>
      </g>
     </g>
     <g id="text_6">
      <!-- 1.0 -->
      <defs>
       <path d="M 12.40625 8.296875 
L 28.515625 8.296875 
L 28.515625 63.921875 
L 10.984375 60.40625 
L 10.984375 69.390625 
L 28.421875 72.90625 
L 38.28125 72.90625 
L 38.28125 8.296875 
L 54.390625 8.296875 
L 54.390625 0 
L 12.40625 0 
z
" id="DejaVuSans-49"/>
      </defs>
      <g transform="translate(667.825938 531.995937)scale(0.26 -0.26)">
       <use xlink:href="#DejaVuSans-49"/>
       <use x="63.623047" xlink:href="#DejaVuSans-46"/>
       <use x="95.410156" xlink:href="#DejaVuSans-48"/>
      </g>
     </g>
    </g>
    <g id="xtick_7">
     <g id="line2d_13">
      <path clip-path="url(#pd995906c9d)" d="M 104.42 505.24 
L 104.42 13.32 
" style="fill:none;stroke:#000000;stroke-dasharray:2,3.3;stroke-dashoffset:0;stroke-width:2;"/>
     </g>
     <g id="line2d_14">
      <defs>
       <path d="M 0 0 
L 0 2 
" id="m7a2bfe5447" style="stroke:#000000;stroke-width:0.6;"/>
      </defs>
      <g>
       <use style="stroke:#000000;stroke-width:0.6;" x="104.42" xlink:href="#m7a2bfe5447" y="505.24"/>
      </g>
     </g>
    </g>
    <g id="xtick_8">
     <g id="line2d_15">
      <path clip-path="url(#pd995906c9d)" d="M 162.828 505.24 
L 162.828 13.32 
" style="fill:none;stroke:#000000;stroke-dasharray:2,3.3;stroke-dashoffset:0;stroke-width:2;"/>
     </g>
     <g id="line2d_16">
      <g>
       <use style="stroke:#000000;stroke-width:0.6;" x="162.828" xlink:href="#m7a2bfe5447" y="505.24"/>
      </g>
     </g>
    </g>
    <g id="xtick_9">
     <g id="line2d_17">
      <path clip-path="url(#pd995906c9d)" d="M 221.236 505.24 
L 221.236 13.32 
" style="fill:none;stroke:#000000;stroke-dasharray:2,3.3;stroke-dashoffset:0;stroke-width:2;"/>
     </g>
     <g id="line2d_18">
      <g>
       <use style="stroke:#000000;stroke-width:0.6;" x="221.236" xlink:href="#m7a2bfe5447" y="505.24"/>
      </g>
     </g>
    </g>
    <g id="xtick_10">
     <g id="line2d_19">
      <path clip-path="url(#pd995906c9d)" d="M 279.644 505.24 
L 279.644 13.32 
" style="fill:none;stroke:#000000;stroke-dasharray:2,3.3;stroke-dashoffset:0;stroke-width:2;"/>
     </g>
     <g id="line2d_20">
      <g>
       <use style="stroke:#000000;stroke-width:0.6;" x="279.644" xlink:href="#m7a2bfe5447" y="505.24"/>
      </g>
     </g>
    </g>
    <g id="xtick_11">
     <g id="line2d_21">
      <path clip-path="url(#pd995906c9d)" d="M 338.052 505.24 
L 338.052 13.32 
" style="fill:none;stroke:#000000;stroke-dasharray:2,3.3;stroke-dashoffset:0;stroke-width:2;"/>
     </g>
     <g id="line2d_22">
      <g>
       <use style="stroke:#000000;stroke-width:0.6;" x="338.052" xlink:href="#m7a2bfe5447" y="505.24"/>
      </g>
     </g>
    </g>
    <g id="xtick_12">
     <g id="line2d_23">
      <path clip-path="url(#pd995906c9d)" d="M 396.46 505.24 
L 396.46 13.32 
" style="fill:none;stroke:#000000;stroke-dasharray:2,3.3;stroke-dashoffset:0;stroke-width:2;"/>
     </g>
     <g id="line2d_24">
      <g>
       <use style="stroke:#000000;stroke-width:0.6;" x="396.46" xlink:href="#m7a2bfe5447" y="505.24"/>
      </g>
     </g>
    </g>
    <g id="xtick_13">
     <g id="line2d_25">
      <path clip-path="url(#pd995906c9d)" d="M 454.868 505.24 
L 454.868 13.32 
" style="fill:none;stroke:#000000;stroke-dasharray:2,3.3;stroke-dashoffset:0;stroke-width:2;"/>
     </g>
     <g id="line2d_26">
      <g>
       <use style="stroke:#000000;stroke-width:0.6;" x="454.868" xlink:href="#m7a2bfe5447" y="505.24"/>
      </g>
     </g>
    </g>
    <g id="xtick_14">
     <g id="line2d_27">
      <path clip-path="url(#pd995906c9d)" d="M 513.276 505.24 
L 513.276 13.32 
" style="fill:none;stroke:#000000;stroke-dasharray:2,3.3;stroke-dashoffset:0;stroke-width:2;"/>
     </g>
     <g id="line2d_28">
      <g>
       <use style="stroke:#000000;stroke-width:0.6;" x="513.276" xlink:href="#m7a2bfe5447" y="505.24"/>
      </g>
     </g>
    </g>
    <g id="xtick_15">
     <g id="line2d_29">
      <path clip-path="url(#pd995906c9d)" d="M 571.684 505.24 
L 571.684 13.32 
" style="fill:none;stroke:#000000;stroke-dasharray:2,3.3;stroke-dashoffset:0;stroke-width:2;"/>
     </g>
     <g id="line2d_30">
      <g>
       <use style="stroke:#000000;stroke-width:0.6;" x="571.684" xlink:href="#m7a2bfe5447" y="505.24"/>
      </g>
     </g>
    </g>
    <g id="xtick_16">
     <g id="line2d_31">
      <path clip-path="url(#pd995906c9d)" d="M 630.092 505.24 
L 630.092 13.32 
" style="fill:none;stroke:#000000;stroke-dasharray:2,3.3;stroke-dashoffset:0;stroke-width:2;"/>
     </g>
     <g id="line2d_32">
      <g>
       <use style="stroke:#000000;stroke-width:0.6;" x="630.092" xlink:href="#m7a2bfe5447" y="505.24"/>
      </g>
     </g>
    </g>
    <g id="xtick_17">
     <g id="line2d_33">
      <path clip-path="url(#pd995906c9d)" d="M 688.5 505.24 
L 688.5 13.32 
" style="fill:none;stroke:#000000;stroke-dasharray:2,3.3;stroke-dashoffset:0;stroke-width:2;"/>
     </g>
     <g id="line2d_34">
      <g>
       <use style="stroke:#000000;stroke-width:0.6;" x="688.5" xlink:href="#m7a2bfe5447" y="505.24"/>
      </g>
     </g>
    </g>
    <g id="text_7">
     <!-- Threshold -->
     <defs>
      <path d="M -0.296875 72.90625 
L 61.375 72.90625 
L 61.375 64.59375 
L 35.5 64.59375 
L 35.5 0 
L 25.59375 0 
L 25.59375 64.59375 
L -0.296875 64.59375 
z
" id="DejaVuSans-84"/>
      <path d="M 54.890625 33.015625 
L 54.890625 0 
L 45.90625 0 
L 45.90625 32.71875 
Q 45.90625 40.484375 42.875 44.328125 
Q 39.84375 48.1875 33.796875 48.1875 
Q 26.515625 48.1875 22.3125 43.546875 
Q 18.109375 38.921875 18.109375 30.90625 
L 18.109375 0 
L 9.078125 0 
L 9.078125 75.984375 
L 18.109375 75.984375 
L 18.109375 46.1875 
Q 21.34375 51.125 25.703125 53.5625 
Q 30.078125 56 35.796875 56 
Q 45.21875 56 50.046875 50.171875 
Q 54.890625 44.34375 54.890625 33.015625 
z
" id="DejaVuSans-104"/>
      <path d="M 41.109375 46.296875 
Q 39.59375 47.171875 37.8125 47.578125 
Q 36.03125 48 33.890625 48 
Q 26.265625 48 22.1875 43.046875 
Q 18.109375 38.09375 18.109375 28.8125 
L 18.109375 0 
L 9.078125 0 
L 9.078125 54.6875 
L 18.109375 54.6875 
L 18.109375 46.1875 
Q 20.953125 51.171875 25.484375 53.578125 
Q 30.03125 56 36.53125 56 
Q 37.453125 56 38.578125 55.875 
Q 39.703125 55.765625 41.0625 55.515625 
z
" id="DejaVuSans-114"/>
      <path d="M 56.203125 29.59375 
L 56.203125 25.203125 
L 14.890625 25.203125 
Q 15.484375 15.921875 20.484375 11.0625 
Q 25.484375 6.203125 34.421875 6.203125 
Q 39.59375 6.203125 44.453125 7.46875 
Q 49.3125 8.734375 54.109375 11.28125 
L 54.109375 2.78125 
Q 49.265625 0.734375 44.1875 -0.34375 
Q 39.109375 -1.421875 33.890625 -1.421875 
Q 20.796875 -1.421875 13.15625 6.1875 
Q 5.515625 13.8125 5.515625 26.8125 
Q 5.515625 40.234375 12.765625 48.109375 
Q 20.015625 56 32.328125 56 
Q 43.359375 56 49.78125 48.890625 
Q 56.203125 41.796875 56.203125 29.59375 
z
M 47.21875 32.234375 
Q 47.125 39.59375 43.09375 43.984375 
Q 39.0625 48.390625 32.421875 48.390625 
Q 24.90625 48.390625 20.390625 44.140625 
Q 15.875 39.890625 15.1875 32.171875 
z
" id="DejaVuSans-101"/>
      <path d="M 44.28125 53.078125 
L 44.28125 44.578125 
Q 40.484375 46.53125 36.375 47.5 
Q 32.28125 48.484375 27.875 48.484375 
Q 21.1875 48.484375 17.84375 46.4375 
Q 14.5 44.390625 14.5 40.28125 
Q 14.5 37.15625 16.890625 35.375 
Q 19.28125 33.59375 26.515625 31.984375 
L 29.59375 31.296875 
Q 39.15625 29.25 43.1875 25.515625 
Q 47.21875 21.78125 47.21875 15.09375 
Q 47.21875 7.46875 41.1875 3.015625 
Q 35.15625 -1.421875 24.609375 -1.421875 
Q 20.21875 -1.421875 15.453125 -0.5625 
Q 10.6875 0.296875 5.421875 2 
L 5.421875 11.28125 
Q 10.40625 8.6875 15.234375 7.390625 
Q 20.0625 6.109375 24.8125 6.109375 
Q 31.15625 6.109375 34.5625 8.28125 
Q 37.984375 10.453125 37.984375 14.40625 
Q 37.984375 18.0625 35.515625 20.015625 
Q 33.0625 21.96875 24.703125 23.78125 
L 21.578125 24.515625 
Q 13.234375 26.265625 9.515625 29.90625 
Q 5.8125 33.546875 5.8125 39.890625 
Q 5.8125 47.609375 11.28125 51.796875 
Q 16.75 56 26.8125 56 
Q 31.78125 56 36.171875 55.265625 
Q 40.578125 54.546875 44.28125 53.078125 
z
" id="DejaVuSans-115"/>
      <path d="M 30.609375 48.390625 
Q 23.390625 48.390625 19.1875 42.75 
Q 14.984375 37.109375 14.984375 27.296875 
Q 14.984375 17.484375 19.15625 11.84375 
Q 23.34375 6.203125 30.609375 6.203125 
Q 37.796875 6.203125 41.984375 11.859375 
Q 46.1875 17.53125 46.1875 27.296875 
Q 46.1875 37.015625 41.984375 42.703125 
Q 37.796875 48.390625 30.609375 48.390625 
z
M 30.609375 56 
Q 42.328125 56 49.015625 48.375 
Q 55.71875 40.765625 55.71875 27.296875 
Q 55.71875 13.875 49.015625 6.21875 
Q 42.328125 -1.421875 30.609375 -1.421875 
Q 18.84375 -1.421875 12.171875 6.21875 
Q 5.515625 13.875 5.515625 27.296875 
Q 5.515625 40.765625 12.171875 48.375 
Q 18.84375 56 30.609375 56 
z
" id="DejaVuSans-111"/>
      <path d="M 9.421875 75.984375 
L 18.40625 75.984375 
L 18.40625 0 
L 9.421875 0 
z
" id="DejaVuSans-108"/>
      <path d="M 45.40625 46.390625 
L 45.40625 75.984375 
L 54.390625 75.984375 
L 54.390625 0 
L 45.40625 0 
L 45.40625 8.203125 
Q 42.578125 3.328125 38.25 0.953125 
Q 33.9375 -1.421875 27.875 -1.421875 
Q 17.96875 -1.421875 11.734375 6.484375 
Q 5.515625 14.40625 5.515625 27.296875 
Q 5.515625 40.1875 11.734375 48.09375 
Q 17.96875 56 27.875 56 
Q 33.9375 56 38.25 53.625 
Q 42.578125 51.265625 45.40625 46.390625 
z
M 14.796875 27.296875 
Q 14.796875 17.390625 18.875 11.75 
Q 22.953125 6.109375 30.078125 6.109375 
Q 37.203125 6.109375 41.296875 11.75 
Q 45.40625 17.390625 45.40625 27.296875 
Q 45.40625 37.203125 41.296875 42.84375 
Q 37.203125 48.484375 30.078125 48.484375 
Q 22.953125 48.484375 18.875 42.84375 
Q 14.796875 37.203125 14.796875 27.296875 
z
" id="DejaVuSans-100"/>
     </defs>
     <g transform="translate(332.112031 561.159063)scale(0.26 -0.26)">
      <use xlink:href="#DejaVuSans-84"/>
      <use x="61.083984" xlink:href="#DejaVuSans-104"/>
      <use x="124.462891" xlink:href="#DejaVuSans-114"/>
      <use x="165.544922" xlink:href="#DejaVuSans-101"/>
      <use x="227.068359" xlink:href="#DejaVuSans-115"/>
      <use x="279.167969" xlink:href="#DejaVuSans-104"/>
      <use x="342.546875" xlink:href="#DejaVuSans-111"/>
      <use x="403.728516" xlink:href="#DejaVuSans-108"/>
      <use x="431.511719" xlink:href="#DejaVuSans-100"/>
     </g>
    </g>
   </g>
   <g id="matplotlib.axis_2">
    <g id="ytick_1">
     <g id="line2d_35">
      <path clip-path="url(#pd995906c9d)" d="M 104.42 505.24 
L 688.5 505.24 
" style="fill:none;stroke:#000000;stroke-dasharray:2,3.3;stroke-dashoffset:0;stroke-width:2;"/>
     </g>
     <g id="line2d_36">
      <defs>
       <path d="M 0 0 
L -3.5 0 
" id="m30c8575b84" style="stroke:#000000;stroke-width:0.8;"/>
      </defs>
      <g>
       <use style="stroke:#000000;stroke-width:0.8;" x="104.42" xlink:href="#m30c8575b84" y="505.24"/>
      </g>
     </g>
     <g id="text_8">
      <!-- 0.80 -->
      <g transform="translate(39.529375 515.117969)scale(0.26 -0.26)">
       <use xlink:href="#DejaVuSans-48"/>
       <use x="63.623047" xlink:href="#DejaVuSans-46"/>
       <use x="95.410156" xlink:href="#DejaVuSans-56"/>
       <use x="159.033203" xlink:href="#DejaVuSans-48"/>
      </g>
     </g>
    </g>
    <g id="ytick_2">
     <g id="line2d_37">
      <path clip-path="url(#pd995906c9d)" d="M 104.42 419.67382 
L 688.5 419.67382 
" style="fill:none;stroke:#000000;stroke-dasharray:2,3.3;stroke-dashoffset:0;stroke-width:2;"/>
     </g>
     <g id="line2d_38">
      <g>
       <use style="stroke:#000000;stroke-width:0.8;" x="104.42" xlink:href="#m30c8575b84" y="419.67382"/>
      </g>
     </g>
     <g id="text_9">
      <!-- 0.82 -->
      <g transform="translate(39.529375 429.551789)scale(0.26 -0.26)">
       <use xlink:href="#DejaVuSans-48"/>
       <use x="63.623047" xlink:href="#DejaVuSans-46"/>
       <use x="95.410156" xlink:href="#DejaVuSans-56"/>
       <use x="159.033203" xlink:href="#DejaVuSans-50"/>
      </g>
     </g>
    </g>
    <g id="ytick_3">
     <g id="line2d_39">
      <path clip-path="url(#pd995906c9d)" d="M 104.42 334.10764 
L 688.5 334.10764 
" style="fill:none;stroke:#000000;stroke-dasharray:2,3.3;stroke-dashoffset:0;stroke-width:2;"/>
     </g>
     <g id="line2d_40">
      <g>
       <use style="stroke:#000000;stroke-width:0.8;" x="104.42" xlink:href="#m30c8575b84" y="334.10764"/>
      </g>
     </g>
     <g id="text_10">
      <!-- 0.84 -->
      <g transform="translate(39.529375 343.985609)scale(0.26 -0.26)">
       <use xlink:href="#DejaVuSans-48"/>
       <use x="63.623047" xlink:href="#DejaVuSans-46"/>
       <use x="95.410156" xlink:href="#DejaVuSans-56"/>
       <use x="159.033203" xlink:href="#DejaVuSans-52"/>
      </g>
     </g>
    </g>
    <g id="ytick_4">
     <g id="line2d_41">
      <path clip-path="url(#pd995906c9d)" d="M 104.42 248.54146 
L 688.5 248.54146 
" style="fill:none;stroke:#000000;stroke-dasharray:2,3.3;stroke-dashoffset:0;stroke-width:2;"/>
     </g>
     <g id="line2d_42">
      <g>
       <use style="stroke:#000000;stroke-width:0.8;" x="104.42" xlink:href="#m30c8575b84" y="248.54146"/>
      </g>
     </g>
     <g id="text_11">
      <!-- 0.86 -->
      <g transform="translate(39.529375 258.419428)scale(0.26 -0.26)">
       <use xlink:href="#DejaVuSans-48"/>
       <use x="63.623047" xlink:href="#DejaVuSans-46"/>
       <use x="95.410156" xlink:href="#DejaVuSans-56"/>
       <use x="159.033203" xlink:href="#DejaVuSans-54"/>
      </g>
     </g>
    </g>
    <g id="ytick_5">
     <g id="line2d_43">
      <path clip-path="url(#pd995906c9d)" d="M 104.42 162.97528 
L 688.5 162.97528 
" style="fill:none;stroke:#000000;stroke-dasharray:2,3.3;stroke-dashoffset:0;stroke-width:2;"/>
     </g>
     <g id="line2d_44">
      <g>
       <use style="stroke:#000000;stroke-width:0.8;" x="104.42" xlink:href="#m30c8575b84" y="162.97528"/>
      </g>
     </g>
     <g id="text_12">
      <!-- 0.88 -->
      <g transform="translate(39.529375 172.853248)scale(0.26 -0.26)">
       <use xlink:href="#DejaVuSans-48"/>
       <use x="63.623047" xlink:href="#DejaVuSans-46"/>
       <use x="95.410156" xlink:href="#DejaVuSans-56"/>
       <use x="159.033203" xlink:href="#DejaVuSans-56"/>
      </g>
     </g>
    </g>
    <g id="ytick_6">
     <g id="line2d_45">
      <path clip-path="url(#pd995906c9d)" d="M 104.42 77.4091 
L 688.5 77.4091 
" style="fill:none;stroke:#000000;stroke-dasharray:2,3.3;stroke-dashoffset:0;stroke-width:2;"/>
     </g>
     <g id="line2d_46">
      <g>
       <use style="stroke:#000000;stroke-width:0.8;" x="104.42" xlink:href="#m30c8575b84" y="77.4091"/>
      </g>
     </g>
     <g id="text_13">
      <!-- 0.90 -->
      <defs>
       <path d="M 10.984375 1.515625 
L 10.984375 10.5 
Q 14.703125 8.734375 18.5 7.8125 
Q 22.3125 6.890625 25.984375 6.890625 
Q 35.75 6.890625 40.890625 13.453125 
Q 46.046875 20.015625 46.78125 33.40625 
Q 43.953125 29.203125 39.59375 26.953125 
Q 35.25 24.703125 29.984375 24.703125 
Q 19.046875 24.703125 12.671875 31.3125 
Q 6.296875 37.9375 6.296875 49.421875 
Q 6.296875 60.640625 12.9375 67.421875 
Q 19.578125 74.21875 30.609375 74.21875 
Q 43.265625 74.21875 49.921875 64.515625 
Q 56.59375 54.828125 56.59375 36.375 
Q 56.59375 19.140625 48.40625 8.859375 
Q 40.234375 -1.421875 26.421875 -1.421875 
Q 22.703125 -1.421875 18.890625 -0.6875 
Q 15.09375 0.046875 10.984375 1.515625 
z
M 30.609375 32.421875 
Q 37.25 32.421875 41.125 36.953125 
Q 45.015625 41.5 45.015625 49.421875 
Q 45.015625 57.28125 41.125 61.84375 
Q 37.25 66.40625 30.609375 66.40625 
Q 23.96875 66.40625 20.09375 61.84375 
Q 16.21875 57.28125 16.21875 49.421875 
Q 16.21875 41.5 20.09375 36.953125 
Q 23.96875 32.421875 30.609375 32.421875 
z
" id="DejaVuSans-57"/>
      </defs>
      <g transform="translate(39.529375 87.287068)scale(0.26 -0.26)">
       <use xlink:href="#DejaVuSans-48"/>
       <use x="63.623047" xlink:href="#DejaVuSans-46"/>
       <use x="95.410156" xlink:href="#DejaVuSans-57"/>
       <use x="159.033203" xlink:href="#DejaVuSans-48"/>
      </g>
     </g>
    </g>
    <g id="ytick_7">
     <g id="line2d_47">
      <path clip-path="url(#pd995906c9d)" d="M 104.42 505.24 
L 688.5 505.24 
" style="fill:none;stroke:#000000;stroke-dasharray:2,3.3;stroke-dashoffset:0;stroke-width:2;"/>
     </g>
     <g id="line2d_48">
      <defs>
       <path d="M 0 0 
L -2 0 
" id="m7c74df10f4" style="stroke:#000000;stroke-width:0.6;"/>
      </defs>
      <g>
       <use style="stroke:#000000;stroke-width:0.6;" x="104.42" xlink:href="#m7c74df10f4" y="505.24"/>
      </g>
     </g>
    </g>
    <g id="ytick_8">
     <g id="line2d_49">
      <path clip-path="url(#pd995906c9d)" d="M 104.42 462.45691 
L 688.5 462.45691 
" style="fill:none;stroke:#000000;stroke-dasharray:2,3.3;stroke-dashoffset:0;stroke-width:2;"/>
     </g>
     <g id="line2d_50">
      <g>
       <use style="stroke:#000000;stroke-width:0.6;" x="104.42" xlink:href="#m7c74df10f4" y="462.45691"/>
      </g>
     </g>
    </g>
    <g id="ytick_9">
     <g id="line2d_51">
      <path clip-path="url(#pd995906c9d)" d="M 104.42 419.67382 
L 688.5 419.67382 
" style="fill:none;stroke:#000000;stroke-dasharray:2,3.3;stroke-dashoffset:0;stroke-width:2;"/>
     </g>
     <g id="line2d_52">
      <g>
       <use style="stroke:#000000;stroke-width:0.6;" x="104.42" xlink:href="#m7c74df10f4" y="419.67382"/>
      </g>
     </g>
    </g>
    <g id="ytick_10">
     <g id="line2d_53">
      <path clip-path="url(#pd995906c9d)" d="M 104.42 376.89073 
L 688.5 376.89073 
" style="fill:none;stroke:#000000;stroke-dasharray:2,3.3;stroke-dashoffset:0;stroke-width:2;"/>
     </g>
     <g id="line2d_54">
      <g>
       <use style="stroke:#000000;stroke-width:0.6;" x="104.42" xlink:href="#m7c74df10f4" y="376.89073"/>
      </g>
     </g>
    </g>
    <g id="ytick_11">
     <g id="line2d_55">
      <path clip-path="url(#pd995906c9d)" d="M 104.42 334.10764 
L 688.5 334.10764 
" style="fill:none;stroke:#000000;stroke-dasharray:2,3.3;stroke-dashoffset:0;stroke-width:2;"/>
     </g>
     <g id="line2d_56">
      <g>
       <use style="stroke:#000000;stroke-width:0.6;" x="104.42" xlink:href="#m7c74df10f4" y="334.10764"/>
      </g>
     </g>
    </g>
    <g id="ytick_12">
     <g id="line2d_57">
      <path clip-path="url(#pd995906c9d)" d="M 104.42 291.32455 
L 688.5 291.32455 
" style="fill:none;stroke:#000000;stroke-dasharray:2,3.3;stroke-dashoffset:0;stroke-width:2;"/>
     </g>
     <g id="line2d_58">
      <g>
       <use style="stroke:#000000;stroke-width:0.6;" x="104.42" xlink:href="#m7c74df10f4" y="291.32455"/>
      </g>
     </g>
    </g>
    <g id="ytick_13">
     <g id="line2d_59">
      <path clip-path="url(#pd995906c9d)" d="M 104.42 248.54146 
L 688.5 248.54146 
" style="fill:none;stroke:#000000;stroke-dasharray:2,3.3;stroke-dashoffset:0;stroke-width:2;"/>
     </g>
     <g id="line2d_60">
      <g>
       <use style="stroke:#000000;stroke-width:0.6;" x="104.42" xlink:href="#m7c74df10f4" y="248.54146"/>
      </g>
     </g>
    </g>
    <g id="ytick_14">
     <g id="line2d_61">
      <path clip-path="url(#pd995906c9d)" d="M 104.42 205.75837 
L 688.5 205.75837 
" style="fill:none;stroke:#000000;stroke-dasharray:2,3.3;stroke-dashoffset:0;stroke-width:2;"/>
     </g>
     <g id="line2d_62">
      <g>
       <use style="stroke:#000000;stroke-width:0.6;" x="104.42" xlink:href="#m7c74df10f4" y="205.75837"/>
      </g>
     </g>
    </g>
    <g id="ytick_15">
     <g id="line2d_63">
      <path clip-path="url(#pd995906c9d)" d="M 104.42 162.97528 
L 688.5 162.97528 
" style="fill:none;stroke:#000000;stroke-dasharray:2,3.3;stroke-dashoffset:0;stroke-width:2;"/>
     </g>
     <g id="line2d_64">
      <g>
       <use style="stroke:#000000;stroke-width:0.6;" x="104.42" xlink:href="#m7c74df10f4" y="162.97528"/>
      </g>
     </g>
    </g>
    <g id="ytick_16">
     <g id="line2d_65">
      <path clip-path="url(#pd995906c9d)" d="M 104.42 120.19219 
L 688.5 120.19219 
" style="fill:none;stroke:#000000;stroke-dasharray:2,3.3;stroke-dashoffset:0;stroke-width:2;"/>
     </g>
     <g id="line2d_66">
      <g>
       <use style="stroke:#000000;stroke-width:0.6;" x="104.42" xlink:href="#m7c74df10f4" y="120.19219"/>
      </g>
     </g>
    </g>
    <g id="ytick_17">
     <g id="line2d_67">
      <path clip-path="url(#pd995906c9d)" d="M 104.42 77.4091 
L 688.5 77.4091 
" style="fill:none;stroke:#000000;stroke-dasharray:2,3.3;stroke-dashoffset:0;stroke-width:2;"/>
     </g>
     <g id="line2d_68">
      <g>
       <use style="stroke:#000000;stroke-width:0.6;" x="104.42" xlink:href="#m7c74df10f4" y="77.4091"/>
      </g>
     </g>
    </g>
    <g id="ytick_18">
     <g id="line2d_69">
      <path clip-path="url(#pd995906c9d)" d="M 104.42 34.62601 
L 688.5 34.62601 
" style="fill:none;stroke:#000000;stroke-dasharray:2,3.3;stroke-dashoffset:0;stroke-width:2;"/>
     </g>
     <g id="line2d_70">
      <g>
       <use style="stroke:#000000;stroke-width:0.6;" x="104.42" xlink:href="#m7c74df10f4" y="34.62601"/>
      </g>
     </g>
    </g>
    <g id="text_14">
     <!-- F-measure -->
     <defs>
      <path d="M 9.8125 72.90625 
L 51.703125 72.90625 
L 51.703125 64.59375 
L 19.671875 64.59375 
L 19.671875 43.109375 
L 48.578125 43.109375 
L 48.578125 34.8125 
L 19.671875 34.8125 
L 19.671875 0 
L 9.8125 0 
z
" id="DejaVuSans-70"/>
      <path d="M 4.890625 31.390625 
L 31.203125 31.390625 
L 31.203125 23.390625 
L 4.890625 23.390625 
z
" id="DejaVuSans-45"/>
      <path d="M 52 44.1875 
Q 55.375 50.25 60.0625 53.125 
Q 64.75 56 71.09375 56 
Q 79.640625 56 84.28125 50.015625 
Q 88.921875 44.046875 88.921875 33.015625 
L 88.921875 0 
L 79.890625 0 
L 79.890625 32.71875 
Q 79.890625 40.578125 77.09375 44.375 
Q 74.3125 48.1875 68.609375 48.1875 
Q 61.625 48.1875 57.5625 43.546875 
Q 53.515625 38.921875 53.515625 30.90625 
L 53.515625 0 
L 44.484375 0 
L 44.484375 32.71875 
Q 44.484375 40.625 41.703125 44.40625 
Q 38.921875 48.1875 33.109375 48.1875 
Q 26.21875 48.1875 22.15625 43.53125 
Q 18.109375 38.875 18.109375 30.90625 
L 18.109375 0 
L 9.078125 0 
L 9.078125 54.6875 
L 18.109375 54.6875 
L 18.109375 46.1875 
Q 21.1875 51.21875 25.484375 53.609375 
Q 29.78125 56 35.6875 56 
Q 41.65625 56 45.828125 52.96875 
Q 50 49.953125 52 44.1875 
z
" id="DejaVuSans-109"/>
      <path d="M 34.28125 27.484375 
Q 23.390625 27.484375 19.1875 25 
Q 14.984375 22.515625 14.984375 16.5 
Q 14.984375 11.71875 18.140625 8.90625 
Q 21.296875 6.109375 26.703125 6.109375 
Q 34.1875 6.109375 38.703125 11.40625 
Q 43.21875 16.703125 43.21875 25.484375 
L 43.21875 27.484375 
z
M 52.203125 31.203125 
L 52.203125 0 
L 43.21875 0 
L 43.21875 8.296875 
Q 40.140625 3.328125 35.546875 0.953125 
Q 30.953125 -1.421875 24.3125 -1.421875 
Q 15.921875 -1.421875 10.953125 3.296875 
Q 6 8.015625 6 15.921875 
Q 6 25.140625 12.171875 29.828125 
Q 18.359375 34.515625 30.609375 34.515625 
L 43.21875 34.515625 
L 43.21875 35.40625 
Q 43.21875 41.609375 39.140625 45 
Q 35.0625 48.390625 27.6875 48.390625 
Q 23 48.390625 18.546875 47.265625 
Q 14.109375 46.140625 10.015625 43.890625 
L 10.015625 52.203125 
Q 14.9375 54.109375 19.578125 55.046875 
Q 24.21875 56 28.609375 56 
Q 40.484375 56 46.34375 49.84375 
Q 52.203125 43.703125 52.203125 31.203125 
z
" id="DejaVuSans-97"/>
      <path d="M 8.5 21.578125 
L 8.5 54.6875 
L 17.484375 54.6875 
L 17.484375 21.921875 
Q 17.484375 14.15625 20.5 10.265625 
Q 23.53125 6.390625 29.59375 6.390625 
Q 36.859375 6.390625 41.078125 11.03125 
Q 45.3125 15.671875 45.3125 23.6875 
L 45.3125 54.6875 
L 54.296875 54.6875 
L 54.296875 0 
L 45.3125 0 
L 45.3125 8.40625 
Q 42.046875 3.421875 37.71875 1 
Q 33.40625 -1.421875 27.6875 -1.421875 
Q 18.265625 -1.421875 13.375 4.4375 
Q 8.5 10.296875 8.5 21.578125 
z
M 31.109375 56 
z
" id="DejaVuSans-117"/>
     </defs>
     <g transform="translate(30.122188 328.425781)rotate(-90)scale(0.26 -0.26)">
      <use xlink:href="#DejaVuSans-70"/>
      <use x="57.519531" xlink:href="#DejaVuSans-45"/>
      <use x="93.603516" xlink:href="#DejaVuSans-109"/>
      <use x="191.015625" xlink:href="#DejaVuSans-101"/>
      <use x="252.539062" xlink:href="#DejaVuSans-97"/>
      <use x="313.818359" xlink:href="#DejaVuSans-115"/>
      <use x="365.917969" xlink:href="#DejaVuSans-117"/>
      <use x="429.296875" xlink:href="#DejaVuSans-114"/>
      <use x="470.378906" xlink:href="#DejaVuSans-101"/>
     </g>
    </g>
   </g>
   <g id="line2d_71">
    <path clip-path="url(#pd995906c9d)" d="M 116.238651 577 
L 118.217165 556.986242 
L 120.516693 537.340241 
L 122.81622 520.333819 
L 125.115748 505.338382 
L 127.415276 491.96428 
L 129.714803 479.822627 
L 132.014331 468.904244 
L 134.313858 458.905926 
L 136.613386 449.596382 
L 138.912913 440.962607 
L 141.212441 432.96227 
L 143.511969 425.449506 
L 148.111024 411.776026 
L 150.410551 405.474036 
L 155.009606 393.901304 
L 159.608661 383.355231 
L 164.207717 373.617785 
L 168.806772 364.701717 
L 173.405827 356.34641 
L 178.004882 348.658201 
L 182.603937 341.389224 
L 187.202992 334.603996 
L 191.802047 328.10514 
L 196.401102 322.051272 
L 203.299685 313.52052 
L 207.89874 308.185261 
L 212.497795 303.004282 
L 217.09685 298.058675 
L 221.695906 293.382355 
L 228.594488 286.716725 
L 237.792598 278.331327 
L 244.691181 272.375891 
L 253.889291 264.991651 
L 263.087402 258.022307 
L 276.884567 248.357538 
L 283.78315 243.783986 
L 292.98126 238.042502 
L 302.17937 232.536389 
L 315.976535 224.814009 
L 327.474173 218.832818 
L 336.672283 214.263601 
L 341.271339 212.090175 
L 345.870394 209.951176 
L 359.667559 203.786124 
L 371.165197 199.015707 
L 378.06378 196.290446 
L 384.962362 193.654948 
L 391.860945 191.113802 
L 405.65811 186.249287 
L 426.353858 179.754766 
L 449.349134 173.452776 
L 463.146299 170.120089 
L 479.242992 166.710134 
L 486.141575 165.426683 
L 504.537795 162.688672 
L 518.334961 161.058667 
L 529.832598 160.108765 
L 534.431654 159.839223 
L 543.629764 159.484253 
L 550.528346 159.351649 
L 564.325512 159.616857 
L 573.523622 160.258455 
L 580.422205 160.97732 
L 585.02126 161.601832 
L 591.919843 162.885538 
L 598.818425 164.357183 
L 603.41748 165.597793 
L 610.316063 167.732712 
L 612.615591 168.528589 
L 619.514173 171.531808 
L 624.113228 173.837837 
L 628.712283 176.580183 
L 633.311339 179.840449 
L 635.610866 181.560217 
L 640.209921 185.611769 
L 644.808976 190.343681 
L 647.108504 193.009015 
L 649.408031 195.952562 
L 651.707559 199.118475 
L 656.306614 206.626903 
L 658.606142 211.01226 
L 660.905669 215.915027 
L 663.205197 221.408389 
L 665.504724 227.629032 
L 667.804252 234.850833 
L 670.10378 243.300493 
L 672.403307 253.281725 
L 674.702835 265.33387 
L 677.002362 280.192368 
L 679.30189 299.4834 
L 681.601417 325.658092 
L 683.900945 363.987443 
L 686.200472 429.911875 
L 688.126314 577 
L 688.126314 577 
" style="fill:none;stroke:#008000;stroke-dasharray:14.8,6.4;stroke-dashoffset:0;stroke-width:4;"/>
   </g>
   <g id="line2d_72">
    <path clip-path="url(#pd995906c9d)" d="M 104.42 316.010409 
L 106.719528 279.597692 
L 109.019055 265.355291 
L 111.318583 256.563412 
L 113.61811 250.240001 
L 115.917638 244.969004 
L 118.217165 240.977378 
L 120.516693 237.593179 
L 122.81622 234.705479 
L 125.115748 232.104152 
L 127.415276 229.793787 
L 129.714803 227.680544 
L 132.014331 225.738155 
L 138.912913 220.514334 
L 143.511969 217.643465 
L 148.111024 215.089314 
L 152.710079 212.774869 
L 157.309134 210.63128 
L 166.507244 206.545556 
L 173.405827 204.111259 
L 191.802047 198.155823 
L 201.000157 195.72586 
L 207.89874 193.916075 
L 210.198268 193.124533 
L 219.396378 191.019705 
L 230.894016 188.51681 
L 233.193543 187.840786 
L 244.691181 185.676031 
L 263.087402 182.231905 
L 276.884567 180.075565 
L 281.483622 179.14734 
L 313.677008 174.569452 
L 325.174646 173.080721 
L 329.773701 172.409032 
L 341.271339 171.116911 
L 348.169921 170.372546 
L 350.469449 169.99182 
L 359.667559 169.067674 
L 384.962362 166.581865 
L 394.160472 165.768903 
L 398.759528 165.32825 
L 433.252441 162.739929 
L 488.441102 159.347314 
L 504.537795 158.637119 
L 513.735906 158.221968 
L 520.634488 158.003937 
L 536.731181 157.379169 
L 541.330236 157.293742 
L 557.426929 156.810249 
L 582.721732 156.223987 
L 587.320787 156.228323 
L 631.011811 155.924609 
L 635.610866 156.040127 
L 647.108504 156.014372 
L 654.007087 156.134225 
L 656.306614 156.32242 
L 667.804252 156.724566 
L 674.702835 157.182559 
L 677.002362 157.473267 
L 681.601417 158.731217 
L 683.900945 159.578351 
L 686.200472 161.221106 
L 688.5 165.794658 
L 688.5 165.794658 
" style="fill:none;stroke:#008000;stroke-linecap:square;stroke-width:4;"/>
   </g>
   <g id="line2d_73">
    <path clip-path="url(#pd995906c9d)" d="M 104.42 280.273716 
L 106.719528 262.835311 
L 109.019055 254.265798 
L 111.318583 248.460051 
L 113.61811 243.946681 
L 115.917638 240.416873 
L 118.217165 237.503417 
L 120.516693 235.034948 
L 122.81622 232.989791 
L 125.115748 231.107329 
L 127.415276 229.541585 
L 132.014331 226.854831 
L 134.313858 225.712399 
L 138.912913 223.735839 
L 143.511969 221.951809 
L 150.410551 219.81689 
L 161.908189 217.168641 
L 168.806772 215.825264 
L 180.304409 213.925716 
L 189.50252 212.697857 
L 226.294961 209.02703 
L 246.990709 207.512543 
L 263.087402 206.460129 
L 309.077953 203.871552 
L 315.976535 203.550753 
L 325.174646 203.110101 
L 378.06378 200.846913 
L 387.26189 200.414676 
L 401.059055 199.819999 
L 426.353858 198.913194 
L 440.151024 198.39961 
L 456.247717 197.813603 
L 483.842047 196.838201 
L 552.827874 194.305216 
L 610.316063 191.631467 
L 640.209921 190.253663 
L 644.808976 190.12973 
L 647.108504 190.211077 
L 651.707559 190.232498 
L 663.205197 190.403607 
L 667.804252 190.656064 
L 670.10378 190.835589 
L 672.403307 191.182144 
L 674.702835 191.408845 
L 677.002362 191.986436 
L 679.30189 192.713717 
L 681.601417 193.984417 
L 683.900945 195.69577 
L 686.200472 198.776255 
L 688.5 206.276014 
L 688.5 206.276014 
" style="fill:none;stroke:#0000ff;stroke-dasharray:14.8,6.4;stroke-dashoffset:0;stroke-width:4;"/>
   </g>
   <g id="line2d_74">
    <path clip-path="url(#pd995906c9d)" d="M 104.42 189.419535 
L 106.719528 177.769791 
L 109.019055 172.383277 
L 111.318583 169.007748 
L 113.61811 166.962591 
L 115.917638 165.589378 
L 118.217165 164.494122 
L 120.516693 163.651324 
L 125.115748 162.466051 
L 129.714803 161.537825 
L 134.313858 160.810545 
L 138.912913 160.202863 
L 152.710079 158.859486 
L 164.207717 158.050858 
L 178.004882 157.263651 
L 187.202992 156.85309 
L 212.497795 155.928944 
L 226.294961 155.475287 
L 251.589764 154.765092 
L 269.985984 154.32444 
L 288.382205 153.862367 
L 299.879843 153.584409 
L 318.276063 153.212099 
L 334.372756 152.925471 
L 571.224094 148.848417 
L 610.316063 147.88143 
L 651.707559 146.409785 
L 663.205197 145.742176 
L 681.601417 144.540073 
L 683.900945 144.659926 
L 686.200472 145.237517 
L 688.5 147.49637 
L 688.5 147.49637 
" style="fill:none;stroke:#0000ff;stroke-linecap:square;stroke-width:4;"/>
   </g>
   <g id="line2d_75">
    <path clip-path="url(#pd995906c9d)" d="M 106.241164 577 
L 106.719528 551.544136 
L 109.019055 492.037212 
L 111.318583 451.808314 
L 113.61811 421.663161 
L 115.917638 397.370931 
L 118.217165 376.753862 
L 120.516693 359.075751 
L 122.81622 343.631247 
L 125.115748 329.970517 
L 127.415276 317.687591 
L 129.714803 306.704945 
L 132.014331 296.595444 
L 134.313858 287.212968 
L 136.613386 278.481016 
L 138.912913 270.506179 
L 143.511969 255.754784 
L 145.811496 249.110574 
L 150.410551 236.801892 
L 155.009606 225.845003 
L 157.309134 220.689779 
L 161.908189 211.16195 
L 166.507244 202.224461 
L 171.106299 194.121356 
L 175.705354 186.54025 
L 180.304409 179.506645 
L 184.903465 172.986623 
L 189.50252 166.91567 
L 196.401102 158.611364 
L 201.000157 153.387544 
L 205.599213 148.450351 
L 212.497795 141.545269 
L 217.09685 137.181333 
L 223.995433 131.063458 
L 230.894016 125.270462 
L 237.792598 119.99105 
L 244.691181 115.083949 
L 253.889291 109.030081 
L 263.087402 103.352858 
L 272.285512 98.171624 
L 279.184094 94.492381 
L 286.082677 91.074011 
L 295.280787 86.859764 
L 306.778425 81.922827 
L 320.575591 76.510557 
L 327.474173 74.076259 
L 338.971811 70.311334 
L 364.266614 62.935509 
L 373.464724 60.6254 
L 378.06378 59.525809 
L 384.962362 58.041158 
L 398.759528 55.307482 
L 412.556693 52.89435 
L 424.054331 51.0889 
L 442.450551 48.616096 
L 467.745354 45.87375 
L 490.74063 44.27358 
L 513.735906 43.601892 
L 520.634488 43.644733 
L 529.832598 43.837263 
L 543.629764 44.684397 
L 555.127402 45.839579 
L 566.625039 47.568017 
L 573.523622 48.92848 
L 580.422205 50.400126 
L 585.02126 51.559643 
L 589.620315 52.864514 
L 594.21937 54.310404 
L 598.818425 55.863653 
L 605.717008 58.760023 
L 612.615591 62.06721 
L 617.214646 64.557099 
L 621.813701 67.27369 
L 626.412756 70.388346 
L 631.011811 73.952325 
L 635.610866 77.824098 
L 637.910394 79.997524 
L 642.509449 84.862039 
L 644.808976 87.561544 
L 647.108504 90.475 
L 651.707559 96.96085 
L 654.007087 100.657433 
L 656.306614 104.747491 
L 658.606142 109.141264 
L 660.905669 114.070041 
L 663.205197 119.567483 
L 665.504724 125.647107 
L 667.804252 132.740385 
L 670.10378 140.937587 
L 672.403307 150.332814 
L 674.702835 161.563326 
L 677.002362 174.864751 
L 679.30189 191.793906 
L 681.601417 214.032564 
L 683.900945 245.854644 
L 686.200472 297.904651 
L 688.5 424.260153 
L 688.5 424.260153 
" style="fill:none;stroke:#ff0000;stroke-dasharray:14.8,6.4;stroke-dashoffset:0;stroke-width:4;"/>
   </g>
   <g id="line2d_76">
    <path clip-path="url(#pd995906c9d)" d="M 104.42 123.401005 
L 106.719528 107.096362 
L 109.019055 100.050006 
L 111.318583 95.673319 
L 113.61811 92.366132 
L 115.917638 89.901744 
L 118.217165 87.800995 
L 120.516693 85.99988 
L 125.115748 83.129266 
L 129.714803 80.77606 
L 134.313858 78.838006 
L 138.912913 77.18658 
L 148.111024 74.31163 
L 152.710079 73.062351 
L 155.009606 72.49343 
L 178.004882 68.060897 
L 187.202992 66.666263 
L 203.299685 64.437246 
L 221.695906 62.216899 
L 223.995433 61.981528 
L 228.594488 61.386851 
L 240.092126 60.25309 
L 260.787874 58.315036 
L 263.087402 57.998317 
L 283.78315 56.466744 
L 288.382205 56.218623 
L 343.570866 52.526375 
L 352.768976 52.034466 
L 355.068504 52.017381 
L 357.368031 51.884777 
L 359.667559 51.568058 
L 389.561417 49.754193 
L 391.860945 49.394633 
L 403.358583 48.727279 
L 405.65811 48.303713 
L 430.952913 46.836402 
L 440.151024 46.39983 
L 442.450551 46.275896 
L 444.750079 46.284311 
L 472.344409 44.649971 
L 486.141575 43.815843 
L 488.441102 43.246922 
L 520.634488 41.235936 
L 522.934016 41.253022 
L 525.233543 41.103332 
L 527.533071 40.149351 
L 562.025984 37.809151 
L 596.518898 35.143562 
L 614.915118 33.509476 
L 631.011811 31.84938 
L 649.408031 29.547686 
L 656.306614 28.43968 
L 667.804252 26.201993 
L 674.702835 24.499311 
L 677.002362 23.814617 
L 679.30189 22.997574 
L 681.601417 22.039257 
L 683.900945 20.922581 
L 686.200472 19.502192 
L 688.5 17.598309 
L 688.5 17.598309 
" style="fill:none;stroke:#ff0000;stroke-linecap:square;stroke-width:4;"/>
   </g>
   <g id="patch_3">
    <path d="M 104.42 505.24 
L 104.42 13.32 
" style="fill:none;stroke:#000000;stroke-linecap:square;stroke-linejoin:miter;stroke-width:2;"/>
   </g>
   <g id="patch_4">
    <path d="M 688.5 505.24 
L 688.5 13.32 
" style="fill:none;stroke:#000000;stroke-linecap:square;stroke-linejoin:miter;stroke-width:2;"/>
   </g>
   <g id="patch_5">
    <path d="M 104.42 505.24 
L 688.5 505.24 
" style="fill:none;stroke:#000000;stroke-linecap:square;stroke-linejoin:miter;stroke-width:2;"/>
   </g>
   <g id="patch_6">
    <path d="M 104.42 13.32 
L 688.5 13.32 
" style="fill:none;stroke:#000000;stroke-linecap:square;stroke-linejoin:miter;stroke-width:2;"/>
   </g>
   <g id="legend_1">
    <g id="patch_7">
     <path d="M 282.049687 494.24 
L 510.870312 494.24 
Q 515.270312 494.24 515.270312 489.84 
L 515.270312 298.28875 
Q 515.270312 293.88875 510.870312 293.88875 
L 282.049687 293.88875 
Q 277.649687 293.88875 277.649687 298.28875 
L 277.649687 489.84 
Q 277.649687 494.24 282.049687 494.24 
z
" style="fill:#ffffff;opacity:0.8;stroke:#cccccc;stroke-linejoin:miter;"/>
    </g>
    <g id="line2d_77">
     <path d="M 286.449687 311.705312 
L 330.449687 311.705312 
" style="fill:none;stroke:#008000;stroke-dasharray:14.8,6.4;stroke-dashoffset:0;stroke-width:4;"/>
    </g>
    <g id="line2d_78"/>
    <g id="text_15">
     <!-- Amulet -->
     <defs>
      <path d="M 34.1875 63.1875 
L 20.796875 26.90625 
L 47.609375 26.90625 
z
M 28.609375 72.90625 
L 39.796875 72.90625 
L 67.578125 0 
L 57.328125 0 
L 50.6875 18.703125 
L 17.828125 18.703125 
L 11.1875 0 
L 0.78125 0 
z
" id="DejaVuSans-65"/>
      <path d="M 18.3125 70.21875 
L 18.3125 54.6875 
L 36.8125 54.6875 
L 36.8125 47.703125 
L 18.3125 47.703125 
L 18.3125 18.015625 
Q 18.3125 11.328125 20.140625 9.421875 
Q 21.96875 7.515625 27.59375 7.515625 
L 36.8125 7.515625 
L 36.8125 0 
L 27.59375 0 
Q 17.1875 0 13.234375 3.875 
Q 9.28125 7.765625 9.28125 18.015625 
L 9.28125 47.703125 
L 2.6875 47.703125 
L 2.6875 54.6875 
L 9.28125 54.6875 
L 9.28125 70.21875 
z
" id="DejaVuSans-116"/>
     </defs>
     <g transform="translate(348.049688 319.405312)scale(0.22 -0.22)">
      <use xlink:href="#DejaVuSans-65"/>
      <use x="68.408203" xlink:href="#DejaVuSans-109"/>
      <use x="165.820312" xlink:href="#DejaVuSans-117"/>
      <use x="229.199219" xlink:href="#DejaVuSans-108"/>
      <use x="256.982422" xlink:href="#DejaVuSans-101"/>
      <use x="318.505859" xlink:href="#DejaVuSans-116"/>
     </g>
    </g>
    <g id="line2d_79">
     <path d="M 286.449687 343.997187 
L 330.449687 343.997187 
" style="fill:none;stroke:#008000;stroke-linecap:square;stroke-width:4;"/>
    </g>
    <g id="line2d_80"/>
    <g id="text_16">
     <!-- Amulet+FLoss -->
     <defs>
      <path d="M 46 62.703125 
L 46 35.5 
L 73.1875 35.5 
L 73.1875 27.203125 
L 46 27.203125 
L 46 0 
L 37.796875 0 
L 37.796875 27.203125 
L 10.59375 27.203125 
L 10.59375 35.5 
L 37.796875 35.5 
L 37.796875 62.703125 
z
" id="DejaVuSans-43"/>
      <path d="M 9.8125 72.90625 
L 19.671875 72.90625 
L 19.671875 8.296875 
L 55.171875 8.296875 
L 55.171875 0 
L 9.8125 0 
z
" id="DejaVuSans-76"/>
     </defs>
     <g transform="translate(348.049688 351.697187)scale(0.22 -0.22)">
      <use xlink:href="#DejaVuSans-65"/>
      <use x="68.408203" xlink:href="#DejaVuSans-109"/>
      <use x="165.820312" xlink:href="#DejaVuSans-117"/>
      <use x="229.199219" xlink:href="#DejaVuSans-108"/>
      <use x="256.982422" xlink:href="#DejaVuSans-101"/>
      <use x="318.505859" xlink:href="#DejaVuSans-116"/>
      <use x="357.714844" xlink:href="#DejaVuSans-43"/>
      <use x="441.503906" xlink:href="#DejaVuSans-70"/>
      <use x="499.023438" xlink:href="#DejaVuSans-76"/>
      <use x="554.720703" xlink:href="#DejaVuSans-111"/>
      <use x="615.902344" xlink:href="#DejaVuSans-115"/>
      <use x="668.001953" xlink:href="#DejaVuSans-115"/>
     </g>
    </g>
    <g id="line2d_81">
     <path d="M 286.449687 376.289062 
L 330.449687 376.289062 
" style="fill:none;stroke:#0000ff;stroke-dasharray:14.8,6.4;stroke-dashoffset:0;stroke-width:4;"/>
    </g>
    <g id="line2d_82"/>
    <g id="text_17">
     <!-- DHS -->
     <defs>
      <path d="M 19.671875 64.796875 
L 19.671875 8.109375 
L 31.59375 8.109375 
Q 46.6875 8.109375 53.6875 14.9375 
Q 60.6875 21.78125 60.6875 36.53125 
Q 60.6875 51.171875 53.6875 57.984375 
Q 46.6875 64.796875 31.59375 64.796875 
z
M 9.8125 72.90625 
L 30.078125 72.90625 
Q 51.265625 72.90625 61.171875 64.09375 
Q 71.09375 55.28125 71.09375 36.53125 
Q 71.09375 17.671875 61.125 8.828125 
Q 51.171875 0 30.078125 0 
L 9.8125 0 
z
" id="DejaVuSans-68"/>
      <path d="M 9.8125 72.90625 
L 19.671875 72.90625 
L 19.671875 43.015625 
L 55.515625 43.015625 
L 55.515625 72.90625 
L 65.375 72.90625 
L 65.375 0 
L 55.515625 0 
L 55.515625 34.71875 
L 19.671875 34.71875 
L 19.671875 0 
L 9.8125 0 
z
" id="DejaVuSans-72"/>
      <path d="M 53.515625 70.515625 
L 53.515625 60.890625 
Q 47.90625 63.578125 42.921875 64.890625 
Q 37.9375 66.21875 33.296875 66.21875 
Q 25.25 66.21875 20.875 63.09375 
Q 16.5 59.96875 16.5 54.203125 
Q 16.5 49.359375 19.40625 46.890625 
Q 22.3125 44.4375 30.421875 42.921875 
L 36.375 41.703125 
Q 47.40625 39.59375 52.65625 34.296875 
Q 57.90625 29 57.90625 20.125 
Q 57.90625 9.515625 50.796875 4.046875 
Q 43.703125 -1.421875 29.984375 -1.421875 
Q 24.8125 -1.421875 18.96875 -0.25 
Q 13.140625 0.921875 6.890625 3.21875 
L 6.890625 13.375 
Q 12.890625 10.015625 18.65625 8.296875 
Q 24.421875 6.59375 29.984375 6.59375 
Q 38.421875 6.59375 43.015625 9.90625 
Q 47.609375 13.234375 47.609375 19.390625 
Q 47.609375 24.75 44.3125 27.78125 
Q 41.015625 30.8125 33.5 32.328125 
L 27.484375 33.5 
Q 16.453125 35.6875 11.515625 40.375 
Q 6.59375 45.0625 6.59375 53.421875 
Q 6.59375 63.09375 13.40625 68.65625 
Q 20.21875 74.21875 32.171875 74.21875 
Q 37.3125 74.21875 42.625 73.28125 
Q 47.953125 72.359375 53.515625 70.515625 
z
" id="DejaVuSans-83"/>
     </defs>
     <g transform="translate(348.049688 383.989062)scale(0.22 -0.22)">
      <use xlink:href="#DejaVuSans-68"/>
      <use x="77.001953" xlink:href="#DejaVuSans-72"/>
      <use x="152.197266" xlink:href="#DejaVuSans-83"/>
     </g>
    </g>
    <g id="line2d_83">
     <path d="M 286.449687 408.580938 
L 330.449687 408.580938 
" style="fill:none;stroke:#0000ff;stroke-linecap:square;stroke-width:4;"/>
    </g>
    <g id="line2d_84"/>
    <g id="text_18">
     <!-- DHS+FLoss -->
     <g transform="translate(348.049688 416.280937)scale(0.22 -0.22)">
      <use xlink:href="#DejaVuSans-68"/>
      <use x="77.001953" xlink:href="#DejaVuSans-72"/>
      <use x="152.197266" xlink:href="#DejaVuSans-83"/>
      <use x="215.673828" xlink:href="#DejaVuSans-43"/>
      <use x="299.462891" xlink:href="#DejaVuSans-70"/>
      <use x="356.982422" xlink:href="#DejaVuSans-76"/>
      <use x="412.679688" xlink:href="#DejaVuSans-111"/>
      <use x="473.861328" xlink:href="#DejaVuSans-115"/>
      <use x="525.960938" xlink:href="#DejaVuSans-115"/>
     </g>
    </g>
    <g id="line2d_85">
     <path d="M 286.449687 440.872813 
L 330.449687 440.872813 
" style="fill:none;stroke:#ff0000;stroke-dasharray:14.8,6.4;stroke-dashoffset:0;stroke-width:4;"/>
    </g>
    <g id="line2d_86"/>
    <g id="text_19">
     <!-- DSS -->
     <g transform="translate(348.049688 448.572812)scale(0.22 -0.22)">
      <use xlink:href="#DejaVuSans-68"/>
      <use x="77.001953" xlink:href="#DejaVuSans-83"/>
      <use x="140.478516" xlink:href="#DejaVuSans-83"/>
     </g>
    </g>
    <g id="line2d_87">
     <path d="M 286.449687 473.164688 
L 330.449687 473.164688 
" style="fill:none;stroke:#ff0000;stroke-linecap:square;stroke-width:4;"/>
    </g>
    <g id="line2d_88"/>
    <g id="text_20">
     <!-- DSS+FLoss -->
     <g transform="translate(348.049688 480.864688)scale(0.22 -0.22)">
      <use xlink:href="#DejaVuSans-68"/>
      <use x="77.001953" xlink:href="#DejaVuSans-83"/>
      <use x="140.478516" xlink:href="#DejaVuSans-83"/>
      <use x="203.955078" xlink:href="#DejaVuSans-43"/>
      <use x="287.744141" xlink:href="#DejaVuSans-70"/>
      <use x="345.263672" xlink:href="#DejaVuSans-76"/>
      <use x="400.960938" xlink:href="#DejaVuSans-111"/>
      <use x="462.142578" xlink:href="#DejaVuSans-115"/>
      <use x="514.242188" xlink:href="#DejaVuSans-115"/>
     </g>
    </g>
   </g>
  </g>
 </g>
 <defs>
  <clipPath id="pd995906c9d">
   <rect height="491.92" width="584.08" x="104.42" y="13.32"/>
  </clipPath>
 </defs>
</svg>
